# xmcd
#
# Track frame offsets:
#	150
#	13336
#	23018
#	32281
#	44532
#	57174
#	71680
#	83462
#	96207
#	105338
#	124093
#	143472
#	162042
#	179196
#	203588
#	217037
#	232506
#	249706
#	261062
#	272995
#	283853
#	298633
#	311093
#	324828
#	342147
#
# Disc length: 4770 seconds
#
# Revision: 0
# Processed by: cddbd v1.5.2PL0 Copyright (c) Steve Scherf et al.
# Submitted via: audiograbber 1.83.01
#
DISCID=5f12a019
DTITLE=Diverse - Countr western 1955 - 1980 CD-7
DYEAR=1900
DGENRE=Country
TTITLE0=Tracy Lawrence - Renegades, Rebels And Rogues
TTITLE1=Patsy Cline - Blue Moon Of Kentucky
TTITLE2=Eddie Hodges - ´m Gonna Knock On Your Door
TTITLE3=Cliff Richards - Lucky Lips
TTITLE4=Bobby Vinton - Blue Velvet
TTITLE5=Bob Seger - Old Time Rock and Roll
TTITLE6=Tennessee Ernie Ford - 16 Tons
TTITLE7=Billie Joe Spears - 57 Chevrolet
TTITLE8=Frankie Lane - Rawhide
TTITLE9=Natalie Cole - Pink Cadillac
TTITLE10=Neil Diamond - America
TTITLE11=Glass Tiger - Hungry Eyes
TTITLE12=Traveling Wilburys - Last Night
TTITLE13=Bob Seger - Night Movies
TTITLE14=Sam Neely - You Can Have Her
TTITLE15=Traveling Wilburys - End Of The Line
TTITLE16=Traveling Wilburys - Got My Mind Set On You
TTITLE17=Faron Young - Talk Back Trembling Lips
TTITLE18=Willie Nelson - Funny How Time Slips Away
TTITLE19=Eddie Arnold - Bouquet Of Roses
TTITLE20=Traveling Wilburys - Handle With Care
TTITLE21=Billy "Crash" Gradoock - Don´t Destroy Me
TTITLE22=The Sensation - Let Me In
TTITLE23=Carly Simon - Night Owl
TTITLE24=Roy Orbison - You Got It
EXTD=
EXTT0=
EXTT1=
EXTT2=
EXTT3=
EXTT4=
EXTT5=
EXTT6=
EXTT7=
EXTT8=
EXTT9=
EXTT10=
EXTT11=
EXTT12=
EXTT13=
EXTT14=
EXTT15=
EXTT16=
EXTT17=
EXTT18=
EXTT19=
EXTT20=
EXTT21=
EXTT22=
EXTT23=
EXTT24=
PLAYORDER=
